<svg id="Layer_1" enable-background="new 0 0 512 512" height="512" viewBox="0 0 512 512" width="512" xmlns="http://www.w3.org/2000/svg"><g id="Layer_2_00000078036784166090891060000014430986065796398745_"><g id="compas"><path d="m255.5 226.2c-16.9 0-30 13.1-29.9 29.8.3 16.8 13.9 30.2 30.7 30.3 16.2.1 29.3-13 29.4-29.2 0-.2 0-.4 0-.6.2-16.6-13-30.2-29.6-30.4-.2.1-.4.1-.6.1z"/><path d="m256 0c-141.4 0-256 114.6-256 256s114.6 256 256 256 256-114.6 256-256-114.6-256-256-256zm135.6 144.5c-21.8 56.1-43.9 112-65.8 168-2.2 6.1-6.9 10.8-12.9 13.1-56.1 22-112.3 44.1-168.4 66.2-1.9.7-3.8 1.2-5.7 1.6-15 .1-23.4-12.8-18.3-26 11-28.5 22.3-56.9 33.5-85.3 10.8-27.4 21.5-54.7 32.2-82.2 2.5-6.5 6.6-11.1 13.1-13.6 55.8-21.8 111.6-43.7 167.4-65.7 12.1-4.8 23.3 0 26 11.6.7 4.1.4 8.4-1.1 12.3z"/></g></g></svg>