<svg id="Layer_1" enable-background="new 0 0 512 512" viewBox="0 0 512 512" xmlns="http://www.w3.org/2000/svg"><g id="Layer_2_00000021825161338820620740000001773051621316598669_"><g id="Layer_1_copy_3"><g id="_135"><path d="m364.1 256c0 59.7-48.4 108.1-108.1 108.1s-108.1-48.4-108.1-108.1 48.4-108.1 108.1-108.1c59.7.1 108 48.4 108.1 108.1z"/><path d="m256 116.6c-18.1 0-32.7-14.6-32.7-32.7v-51.2c0-18.1 14.6-32.7 32.7-32.7s32.7 14.6 32.7 32.7v51.2c0 18.1-14.6 32.7-32.7 32.7z"/><path d="m134.3 167c-8.7 0-17-3.4-23.1-9.6l-36.2-36.2c-12.4-13.1-11.8-33.8 1.4-46.2 12.6-11.9 32.2-11.9 44.8 0l36.2 36.2c12.7 12.8 12.7 33.5-.1 46.2-6.1 6.2-14.3 9.6-23 9.6z"/><path d="m83.9 288.7h-51.2c-18.1 0-32.7-14.6-32.7-32.7s14.6-32.7 32.7-32.7h51.2c18.1 0 32.7 14.6 32.7 32.7s-14.6 32.7-32.7 32.7z"/><path d="m98.1 446.6c-18.1 0-32.7-14.7-32.7-32.7 0-8.7 3.4-17 9.6-23.1l36.2-36.2c12.8-12.7 33.5-12.6 46.2.2 12.6 12.7 12.6 33.2 0 46l-36.2 36.2c-6.1 6.1-14.4 9.6-23.1 9.6z"/><path d="m256 512c-18.1 0-32.7-14.6-32.7-32.7v-51.2c0-18.1 14.6-32.7 32.7-32.7s32.7 14.6 32.7 32.7v51.2c0 18.1-14.6 32.7-32.7 32.7z"/><path d="m413.9 446.6c-8.7 0-17-3.4-23.1-9.6l-36.2-36.2c-12.7-12.8-12.6-33.5.2-46.2 12.7-12.6 33.3-12.6 46 0l36.2 36.3c12.8 12.8 12.8 33.5 0 46.2-6.1 6-14.5 9.5-23.1 9.5z"/><path d="m479.3 288.7h-51.2c-18.1 0-32.7-14.6-32.7-32.7s14.6-32.7 32.7-32.7h51.2c18.1 0 32.7 14.6 32.7 32.7s-14.6 32.7-32.7 32.7z"/><path d="m377.7 167c-18.1 0-32.7-14.7-32.7-32.7 0-8.7 3.4-17 9.6-23.1l36.2-36.2c13.1-12.4 33.8-11.8 46.2 1.4 11.9 12.6 11.9 32.2 0 44.8l-36.2 36.2c-6.2 6.2-14.5 9.6-23.1 9.6z"/></g></g></g></svg>